<svg width="16" height="18" viewBox="0 0 16 18" fill="none" xmlns="http://www.w3.org/2000/svg">
<path d="M5.49219 16.5H10.4922" stroke="white" stroke-width="1.5" stroke-linecap="round" stroke-linejoin="round"/>
<path d="M2.39087 7.125C2.38982 6.38404 2.53538 5.6502 2.81917 4.96575C3.10295 4.28129 3.51934 3.65974 4.04436 3.1369C4.56938 2.61405 5.19266 2.20025 5.87829 1.91931C6.56392 1.63838 7.29836 1.49587 8.0393 1.5C11.1331 1.52343 13.6096 4.09375 13.6096 7.19531V7.75C13.6096 10.5469 14.1956 12.1719 14.7112 13.0625C14.7659 13.1573 14.7948 13.2649 14.7949 13.3744C14.795 13.484 14.7663 13.5916 14.7117 13.6865C14.6571 13.7815 14.5785 13.8604 14.4838 13.9154C14.3891 13.9705 14.2816 13.9996 14.1721 14H1.82837C1.71884 13.9996 1.61134 13.9705 1.51664 13.9154C1.42193 13.8604 1.34334 13.7815 1.28875 13.6865C1.23416 13.5916 1.20547 13.484 1.20557 13.3744C1.20566 13.2649 1.23454 13.1573 1.2893 13.0625C1.80493 12.1719 2.39087 10.5469 2.39087 7.75V7.125Z" stroke="white" stroke-width="1.5" stroke-linecap="round" stroke-linejoin="round"/>
</svg>
