<svg width="19" height="18" viewBox="0 0 19 18" fill="none" xmlns="http://www.w3.org/2000/svg">
<path d="M12.4813 1.8183L14.1479 2.69292C15.941 3.63388 16.8375 4.10435 17.3353 4.94977C17.8332 5.7952 17.8332 6.84721 17.8332 8.95125V9.04873C17.8332 11.1528 17.8332 12.2048 17.3353 13.0502C16.8375 13.8956 15.941 14.3661 14.1479 15.3071L12.4813 16.1817C11.0182 16.9494 10.2867 17.3333 9.49984 17.3333C8.71294 17.3333 7.98143 16.9494 6.51841 16.1817L4.85175 15.3071C3.05869 14.3661 2.16217 13.8956 1.66433 13.0502C1.1665 12.2048 1.1665 11.1528 1.1665 9.04873V8.95125C1.1665 6.84721 1.1665 5.7952 1.66433 4.94977C2.16217 4.10435 3.05869 3.63387 4.85175 2.69292L6.51841 1.81829C7.98143 1.05054 8.71294 0.666656 9.49984 0.666656C10.2867 0.666656 11.0182 1.05054 12.4813 1.8183Z" stroke="white" stroke-linecap="round"/>
<path d="M17 5.25L13.6667 6.91667M9.5 9L2 5.25M9.5 9V16.9167M9.5 9C9.5 9 11.7855 7.85723 13.25 7.125C13.4127 7.04364 13.6667 6.91667 13.6667 6.91667M13.6667 6.91667V9.83333M13.6667 6.91667L5.75 2.75" stroke="white" stroke-linecap="round"/>
</svg>
