<svg width="225" height="194" viewBox="0 0 225 194" fill="none" xmlns="http://www.w3.org/2000/svg">
<path d="M55.746 156.911L0.876465 184.662L129.46 193.912L200.195 151.449L169.079 149.422L70.9096 142.727L55.746 156.911Z" fill="#919EAB" stroke="#E2E2E2" stroke-width="0.25" stroke-miterlimit="10"/>
<path d="M151.373 94.9775C134.018 87.5773 113.333 74.6269 93.3484 51.8975C65.0372 87.0487 41.8973 102.994 20.7734 107.399C42.7738 180.433 121.309 189.683 121.309 189.683C121.309 189.683 154.266 185.278 189.677 114.8" fill="white"/>
<path d="M189.589 114.8C189.326 114.623 186.697 119.116 182.139 127.222C177.23 135.15 170.393 146.779 159.612 159.554C154.178 165.897 147.867 172.592 139.979 178.495C139.014 179.199 137.963 179.904 136.998 180.697C135.947 181.402 134.895 182.019 133.843 182.723C132.791 183.428 131.652 183.957 130.512 184.573C129.373 185.19 128.233 185.719 127.094 186.247C126.48 186.512 125.867 186.776 125.341 186.952C124.727 187.128 124.114 187.393 123.5 187.569C122.887 187.745 122.273 187.921 121.66 188.097C121.484 188.097 121.309 188.186 121.221 188.186C121.221 188.186 121.221 188.186 121.134 188.186L120.169 188.009C117.54 187.569 114.823 187.04 112.106 186.335C101.325 183.692 90.1052 179.728 79.3241 174.09C68.4554 168.451 57.9373 161.051 48.8216 151.713C46.8933 149.863 45.2279 147.837 43.4749 145.986C42.5984 145.017 41.8095 143.96 41.0207 142.991C40.2318 142.022 39.3553 140.965 38.6541 139.908L36.3752 136.736C35.5863 135.679 34.9728 134.534 34.2715 133.476C32.8691 131.274 31.642 128.983 30.3273 126.693L29.7137 125.636L29.1878 124.49L28.136 122.288L27.0842 120.086C26.7336 119.381 26.4706 118.588 26.12 117.883C25.5065 116.385 24.8929 114.888 24.367 113.39C23.8411 111.892 23.3152 110.395 22.8769 108.897L22.7893 108.721L23.7534 108.457C25.3312 108.104 26.9089 107.576 28.3989 107.135C29.9767 106.695 31.3791 105.99 32.9568 105.461C34.4469 104.845 35.8493 104.228 37.3393 103.523C43.0366 100.792 48.2957 97.5324 53.1165 94.0085C53.7301 93.568 54.3436 93.1275 54.9572 92.687C55.5707 92.2465 56.0966 91.806 56.7102 91.3655C57.8497 90.4845 59.0768 89.5155 60.2162 88.6345C62.4075 86.6963 64.6864 84.9343 66.7024 82.9081C75.1169 75.2435 82.3919 67.2266 88.7904 59.562C90.2805 57.712 91.7706 55.95 93.173 54.1881L93.2606 54.0119L93.3483 53.9238C93.3483 53.9238 93.3483 53.9238 93.4359 53.9238L93.7865 54.2762C94.5754 55.1571 95.3643 56.0381 96.1531 56.831C99.3962 60.1787 102.552 63.3503 105.707 66.1694C118.241 77.6222 129.899 84.8462 138.138 89.1631C142.258 91.3655 145.588 92.7751 147.867 93.6561C150.146 94.5371 151.373 94.8895 151.461 94.8013C151.549 94.5371 146.903 92.5108 138.839 87.8416C130.863 83.1724 119.556 75.8602 107.372 64.3194C104.305 61.5002 101.237 58.3287 98.1691 54.9809C97.3802 54.1 96.5914 53.3071 95.8902 52.4261C95.189 51.7213 94.5754 50.9284 93.8742 50.2236L93.6113 49.9593L93.4359 49.7831L93.3483 49.695L93.2606 49.7831L92.7347 50.3998L91.6829 51.6332C90.0175 53.5714 88.4398 55.5976 86.6868 57.6239C80.2006 65.2003 73.0133 72.953 64.6864 80.4413C62.6705 82.3795 60.4792 84.1415 58.2879 85.9915C57.1484 86.8725 56.009 87.7535 54.8695 88.6345C54.256 89.075 53.7301 89.5155 53.1165 89.9559C52.5029 90.3964 51.8894 90.8369 51.3635 91.1893C46.6303 94.5371 41.4589 97.7086 36.0246 100.263C34.6222 100.88 33.2197 101.497 31.8173 102.114C30.4149 102.642 28.9248 103.259 27.5224 103.699C26.0324 104.14 24.6299 104.668 23.0522 104.933C21.8251 105.197 20.598 105.549 19.3709 105.814L18.7573 105.99H18.582C18.582 105.99 18.582 106.078 18.582 106.166L18.6697 106.43L19.0203 107.576L19.7215 109.69C20.2474 111.276 20.7733 112.773 21.2992 114.359C21.9128 115.857 22.5263 117.443 23.1399 118.94C23.4905 119.733 23.7534 120.526 24.104 121.231L25.1559 123.521L26.2077 125.812L26.7336 126.957L27.3471 128.102C28.6619 130.481 29.889 132.86 31.3791 135.15C32.0803 136.296 32.7815 137.441 33.5703 138.498L35.8493 141.758C36.6381 142.903 37.427 143.872 38.3035 144.929C39.18 145.986 39.9689 147.044 40.8454 148.013C42.5984 150.039 44.3514 152.065 46.3674 154.003C55.8337 163.606 66.7024 171.183 77.7464 176.909C88.8781 182.635 100.273 186.688 111.317 189.243C114.122 189.859 116.839 190.476 119.644 190.828L120.695 191.005L121.134 191.093C121.309 191.093 121.484 191.005 121.572 191.005C121.835 191.005 121.923 190.917 122.185 190.917C122.887 190.74 123.588 190.564 124.289 190.3C124.99 190.124 125.604 189.859 126.305 189.595C126.919 189.331 127.62 189.066 128.233 188.802C129.46 188.186 130.688 187.657 131.915 187.04C133.054 186.424 134.281 185.807 135.333 185.014C136.473 184.309 137.524 183.604 138.576 182.9C139.628 182.107 140.68 181.402 141.644 180.609C149.708 174.442 156.106 167.571 161.453 161.051C172.146 147.925 178.808 135.943 183.366 127.838C185.469 123.698 187.047 120.438 188.099 118.235C189.238 116.033 189.764 114.888 189.589 114.8Z" fill="#919EAB"/>
<path d="M192.92 104.756C192.92 104.756 188.537 104.845 181.174 103.699L192.92 104.756Z" fill="white"/>
<path d="M181.175 103.699C180.999 104.845 183.278 105.726 186.434 106.078C186.609 106.078 186.784 106.078 186.872 106.078C187.047 106.078 187.222 106.078 187.31 106.166C190.466 106.342 192.92 105.902 192.92 104.756C192.92 103.699 190.641 103.171 187.661 102.818C187.485 102.818 187.398 102.818 187.222 102.818C187.047 102.818 186.959 102.818 186.784 102.73C183.716 102.554 181.35 102.642 181.175 103.699Z" fill="#919EAB"/>
<path d="M41.7217 118.676C54.8693 115.152 65.5627 105.814 75.3796 96.4752L41.7217 118.676Z" fill="white"/>
<path d="M75.2922 96.4752C75.1169 96.299 73.4515 97.5324 70.9096 99.7349C68.3678 101.937 64.7741 105.021 60.5668 108.104C60.1286 108.457 59.6903 108.721 59.3397 109.073C58.9014 109.338 58.4632 109.69 58.0249 109.954C53.73 112.95 49.6104 115.064 46.5427 116.474C43.4749 117.795 41.5466 118.412 41.6342 118.764C41.7219 119.028 43.7378 118.764 46.9809 117.619C50.224 116.474 54.5189 114.447 58.9891 111.364C59.4274 111.011 59.8656 110.747 60.3039 110.483C60.7421 110.13 61.1804 109.866 61.6186 109.514C65.9135 106.342 69.3319 103.083 71.7861 100.704C74.1527 98.2372 75.4675 96.6514 75.2922 96.4752Z" fill="#919EAB"/>
<path d="M49.7856 124.49C64.9493 119.557 77.9216 108.28 84.9337 93.9204L49.7856 124.49Z" fill="white"/>
<path d="M84.9339 93.9204C84.671 93.7442 83.5315 95.8585 81.3402 99.1182C79.149 102.378 75.8182 106.695 71.2604 110.835C70.8221 111.276 70.3839 111.628 69.9456 112.069C69.5074 112.421 68.9814 112.861 68.5432 113.214C63.81 117.178 58.9892 119.821 55.5708 121.583C52.0648 123.257 49.7859 124.138 49.8735 124.49C49.9612 124.667 52.3278 124.226 56.0091 122.728C59.6904 121.231 64.6865 118.588 69.595 114.535C70.1209 114.095 70.5592 113.742 71.0851 113.302C71.5233 112.861 72.0492 112.421 72.4875 112.069C77.133 107.752 80.4637 103.171 82.4797 99.7349C84.408 96.299 85.1969 94.0085 84.9339 93.9204Z" fill="#919EAB"/>
<path d="M166.274 94.9775L166.099 94.8014V94.9775H166.274ZM128.759 136.296C129.11 136.824 129.986 137 130.6 136.472C132.09 135.238 140.154 128.455 147.254 120.967C147.078 120.967 146.552 120.438 145.764 119.909L146.64 118.676C132.002 133.565 127.182 133.917 128.759 136.296ZM146.728 118.588C152.162 112.597 157.071 108.016 165.923 94.8894L161.716 90.6607C158.648 96.4752 155.23 102.114 151.198 107.399L153.389 108.897L146.728 118.588Z" fill="#919EAB"/>
<path d="M186.696 48.1974C182.138 70.5743 169.867 96.3871 147.779 120.438H147.955C159.349 119.733 172.059 108.457 178.72 98.942C179.947 97.4443 181.087 95.6823 182.138 94.0085V93.8323C183.015 92.3346 183.804 90.7488 184.68 89.2512C188.888 81.5866 191.955 72.5125 193.182 62.4693L189.939 62.8217L193.533 58.8573C194.41 48.1093 193.533 36.4803 189.764 23.8823C189.589 23.5299 189.063 23.3537 188.712 23.7061C186.17 25.7323 183.804 31.8992 181.087 40.2685C181.788 42.8234 182.752 45.3782 183.629 48.1093C182.138 47.2283 180.911 46.083 179.684 45.0258C175.915 56.4786 171.357 71.0148 164.696 85.0225L166.361 94.449C168.202 91.7179 170.306 88.1059 171.796 85.551C180.473 70.4862 185.557 52.4261 187.047 46.6116C186.696 47.3164 186.521 48.0212 186.696 48.1974Z" fill="#919EAB"/>
<path d="M129.285 135.767C129.022 135.591 128.584 135.767 128.058 136.119C127.444 136.472 126.743 137 125.779 137.529C124.815 138.058 123.5 138.674 122.01 139.291C120.52 139.996 118.767 140.701 117.014 142.022C116.663 142.286 116.313 142.551 115.962 142.903C115.611 143.167 115.349 143.52 114.998 143.872C114.56 144.313 114.297 144.841 114.034 145.282C113.771 145.81 113.508 146.251 113.333 146.691C112.982 147.572 112.719 148.365 112.368 149.07C111.843 150.391 111.054 151.36 110.265 152.153C108.775 153.739 107.46 154.356 107.548 154.972C107.635 155.237 108.074 155.325 108.775 155.237C109.476 155.149 110.615 154.796 111.755 154.003C112.894 153.21 114.121 152.065 115.086 150.391C115.524 149.598 115.874 148.717 116.225 148.013C116.4 147.66 116.576 147.308 116.751 146.956C117.014 146.691 117.189 146.339 117.452 146.075C117.627 145.81 117.89 145.634 118.153 145.37C118.416 145.194 118.679 144.929 118.942 144.753C120.257 143.696 121.835 142.903 123.325 142.11C124.815 141.317 126.13 140.436 127.094 139.555C128.146 138.674 128.759 137.793 129.11 137.089C129.46 136.384 129.46 135.943 129.285 135.767Z" fill="#919EAB"/>
<path d="M208.434 67.6671C208.697 67.6671 208.96 67.4028 209.135 67.0504C209.31 66.7861 209.573 66.3456 209.924 66.0813C210.275 65.817 210.538 65.9051 210.8 65.9932C210.888 66.0813 210.976 66.1694 211.151 66.3456C211.326 66.5218 211.502 66.8742 211.589 67.3147C211.677 67.4909 211.677 67.6671 211.677 67.7552C211.677 67.9314 211.765 68.0195 211.765 68.2838V68.46V68.5481H211.589C211.414 68.5481 211.239 68.5481 211.063 68.46C210.8 68.46 210.538 68.3719 210.275 68.2838C209.836 68.1957 209.573 68.0195 209.223 67.8433C208.96 67.8433 208.697 67.579 208.434 67.6671C208.171 67.6671 207.996 67.9314 207.908 68.46C207.82 68.9886 208.171 69.8695 208.96 70.5743C209.31 70.9267 209.836 71.191 210.362 71.3672C210.625 71.4553 210.8 71.5434 211.063 71.6315L211.239 71.7196L211.589 71.8077C211.765 71.8077 212.028 71.8958 212.291 71.8958C213.167 71.9839 214.131 71.6315 214.745 70.8386C215.008 70.4862 215.183 69.9576 215.271 69.4291C215.271 69.1648 215.271 68.9005 215.271 68.6362V68.2838V68.0195C215.271 67.7552 215.183 67.4028 215.095 67.1385C215.008 66.8742 214.92 66.6099 214.832 66.2575C214.569 65.5527 214.219 64.8479 213.693 64.3194C213.167 63.7027 212.378 63.1741 211.502 63.086C209.836 62.8217 208.434 63.8789 207.996 64.8479C207.557 65.817 207.645 66.6099 207.733 67.1385C207.908 67.4909 208.171 67.6671 208.434 67.6671Z" fill="#919EAB"/>
<path d="M1.05158 130.922C1.31454 130.922 1.57749 130.657 1.75279 130.305C1.92809 130.041 2.19105 129.6 2.54165 129.336C2.89225 129.072 3.15521 129.16 3.41816 129.248C3.50581 129.336 3.59346 129.424 3.76876 129.6C3.94406 129.776 4.11937 130.129 4.20702 130.569C4.29467 130.745 4.29467 130.922 4.29467 131.01C4.29467 131.186 4.38232 131.274 4.38232 131.538V131.715V131.803H4.20702C4.03172 131.803 3.85641 131.803 3.68111 131.715C3.41816 131.715 3.15521 131.626 2.89225 131.538C2.454 131.45 2.19105 131.274 1.84044 131.098C1.66514 131.01 1.40219 130.834 1.05158 130.922C0.78863 130.922 0.613328 131.186 0.525677 131.715C0.438026 132.243 0.78863 133.124 1.57749 133.829C1.92809 134.181 2.454 134.446 2.9799 134.622C3.24286 134.71 3.41816 134.798 3.68111 134.886L3.85641 134.974L4.20702 135.062C4.38232 135.062 4.64527 135.15 4.90822 135.15C5.78473 135.238 6.74889 134.886 7.36245 134.093C7.6254 133.741 7.80071 133.212 7.88836 132.684C7.88836 132.419 7.88836 132.155 7.88836 131.891V131.538V131.274C7.88836 131.01 7.80071 130.657 7.71305 130.393C7.6254 130.129 7.53775 129.864 7.4501 129.512C7.18715 128.807 6.83655 128.103 6.31064 127.574C5.78473 126.957 4.99588 126.429 4.11937 126.341C2.454 126.076 1.05158 127.133 0.613328 128.103C0.175073 129.072 0.262724 129.864 0.350375 130.393C0.525677 130.745 0.876281 130.922 1.05158 130.922Z" fill="#A8A8A8"/>
<path d="M130.512 40.8852C130.775 40.8852 131.038 40.6209 131.213 40.2685C131.389 40.0042 131.651 39.5637 132.002 39.2994C132.353 39.0352 132.616 39.1233 132.879 39.2113C132.966 39.2994 133.054 39.3875 133.229 39.5637C133.405 39.7399 133.58 40.0923 133.667 40.5328C133.755 40.709 133.755 40.8852 133.755 40.9733C133.755 41.1495 133.843 41.2376 133.843 41.5019V41.6781V41.7662H133.667C133.492 41.7662 133.317 41.7662 133.142 41.6781C132.879 41.6781 132.616 41.59 132.353 41.5019C131.914 41.4138 131.651 41.2376 131.301 41.0614C131.038 41.0614 130.775 40.8852 130.512 40.8852C130.249 40.8852 130.074 41.1495 129.986 41.6781C129.898 42.2067 130.249 43.0877 131.038 43.7925C131.389 44.1448 131.914 44.4091 132.44 44.5853C132.703 44.6734 132.879 44.7615 133.142 44.8496L133.317 44.9377L133.667 45.0258C133.843 45.0258 134.106 45.1139 134.369 45.1139C135.245 45.202 136.209 44.8496 136.823 44.0568C137.086 43.7044 137.261 43.1758 137.349 42.6472C137.349 42.3829 137.349 42.1186 137.349 41.8543V41.5019V41.2376C137.349 40.9733 137.261 40.6209 137.174 40.3566C137.086 40.0923 136.998 39.828 136.911 39.4756C136.648 38.7709 136.297 38.0661 135.771 37.5375C135.245 36.9208 134.456 36.3922 133.58 36.3041C131.914 36.0398 130.512 37.097 130.074 38.0661C129.636 39.0352 129.723 39.828 129.811 40.3566C129.986 40.7971 130.249 40.9733 130.512 40.8852Z" fill="#A8A8A8"/>
<path d="M142.258 0.0957184C141.118 0.0957184 140.68 2.12198 140.592 4.76493C140.592 4.85302 140.592 5.02922 140.592 5.11732C140.592 5.20542 140.592 5.38161 140.592 5.46971C140.68 8.11266 141.118 10.1389 142.258 10.1389C143.309 10.1389 143.835 8.11266 143.923 5.46971C143.923 5.38161 143.923 5.20542 143.923 5.11732C143.923 5.02922 143.923 4.85302 143.923 4.76493C143.835 2.12198 143.309 0.0957184 142.258 0.0957184Z" fill="#A8A8A8"/>
<path d="M54.0806 140.26C54.0806 141.405 54.6065 141.846 55.3077 141.934H55.3953H55.483C56.1842 141.846 56.7101 141.405 56.7101 140.26C56.7101 139.203 56.1842 138.674 55.483 138.586H55.3953H55.3077C54.6065 138.674 54.0806 139.203 54.0806 140.26Z" fill="#A8A8A8"/>
<path d="M0.262953 71.8077C-0.0876509 72.2482 -0.0876509 72.7768 0.262953 73.3935C0.613557 74.0102 1.40242 74.6269 2.36658 75.1554L2.62953 75.2435L2.89248 75.3316C3.94429 75.684 4.90845 75.7721 5.60966 75.684C6.31087 75.5078 6.74912 75.1554 6.83677 74.5388C7.01208 73.5697 5.78496 73.0411 4.2949 72.3363L4.03194 72.2482L3.76899 72.1601C2.27892 71.5434 0.964161 71.0148 0.262953 71.8077Z" fill="#A8A8A8"/>
<path d="M95.9779 38.2423C94.8384 38.2423 94.4002 39.2113 94.3125 40.4447C94.3125 40.5328 94.3125 40.5328 94.3125 40.6209C94.3125 40.709 94.3125 40.709 94.3125 40.7971C94.4002 42.0305 94.8384 42.9996 95.9779 42.9996C97.0297 42.9996 97.5556 42.0305 97.6432 40.7971C97.6432 40.709 97.6432 40.709 97.6432 40.6209C97.6432 40.5328 97.6432 40.5328 97.6432 40.4447C97.5556 39.2113 97.0297 38.2423 95.9779 38.2423Z" fill="#A8A8A8"/>
<path d="M222.195 114.447C222.634 115.504 223.335 115.769 224.036 115.504C224.036 115.504 224.124 115.504 224.124 115.416H224.211C224.825 115.064 225.175 114.447 224.825 113.39C224.474 112.421 223.685 112.157 222.984 112.333C222.984 112.333 222.896 112.333 222.896 112.421H222.809C222.108 112.773 221.757 113.478 222.195 114.447Z" fill="#A8A8A8"/>
<path d="M31.5545 10.1389C31.9051 11.1961 33.2199 11.2842 34.7976 10.7556C34.8853 10.7556 34.9729 10.6675 35.0606 10.6675C35.1482 10.6675 35.2359 10.5794 35.3235 10.5794C36.8136 9.96272 37.7778 9.08174 37.4271 8.02456C37.0765 7.05548 35.7618 6.96738 34.1841 7.40787C34.0964 7.40787 34.0088 7.49597 33.9211 7.49597C33.8335 7.49597 33.7458 7.58407 33.6582 7.58407C32.1681 8.20076 31.2039 9.16984 31.5545 10.1389Z" fill="#A8A8A8"/>
<path d="M198.442 139.996C198.792 141.053 200.107 141.141 201.685 140.612C201.772 140.612 201.86 140.524 201.948 140.524C202.035 140.524 202.123 140.436 202.211 140.436C203.701 139.82 204.665 138.939 204.314 137.881C203.964 136.912 202.649 136.824 201.071 137.265C200.984 137.265 200.896 137.353 200.808 137.353C200.721 137.353 200.633 137.441 200.545 137.441C199.055 138.058 198.091 139.027 198.442 139.996Z" fill="#A8A8A8"/>
<path d="M72.3999 21.9441C72.3999 23.0894 73.2764 23.5299 74.3282 23.618C74.4159 23.618 74.4159 23.618 74.5035 23.618C74.5912 23.618 74.5912 23.618 74.6788 23.618C75.7306 23.5299 76.6072 23.0894 76.6072 21.9441C76.6072 20.8869 75.7306 20.3583 74.6788 20.2702C74.5912 20.2702 74.5912 20.2702 74.5035 20.2702C74.4159 20.2702 74.4159 20.2702 74.3282 20.2702C73.1888 20.3583 72.3999 20.8869 72.3999 21.9441Z" fill="#919EAB"/>
<path d="M37.3392 61.8526C38.4787 61.8526 38.9169 60.9716 39.0046 59.9144C39.0046 59.8263 39.0046 59.8263 39.0046 59.7382C39.0046 59.6501 39.0046 59.6501 39.0046 59.562C38.9169 58.5049 38.4787 57.6239 37.3392 57.6239C36.2874 57.6239 35.7615 58.5049 35.6738 59.562C35.6738 59.6501 35.6738 59.6501 35.6738 59.7382C35.6738 59.8263 35.6738 59.8263 35.6738 59.9144C35.7615 60.9716 36.2874 61.8526 37.3392 61.8526Z" fill="#919EAB"/>
<path d="M7.53809 169.244C7.53809 170.39 9.55406 170.83 12.0959 170.918C12.1836 170.918 12.3589 170.918 12.4465 170.918C12.5342 170.918 12.7095 170.918 12.7971 170.918C15.4267 170.83 17.355 170.39 17.355 169.244C17.355 168.187 15.339 167.659 12.7971 167.571C12.7095 167.571 12.5342 167.571 12.4465 167.571C12.3589 167.571 12.1836 167.571 12.0959 167.571C9.46641 167.571 7.53809 168.187 7.53809 169.244Z" fill="#919EAB"/>
</svg>
