<svg width="258" height="63" viewBox="0 0 258 63" fill="none" xmlns="http://www.w3.org/2000/svg">
<path d="M109.047 38.5947H117.562L117.013 39.7299H108.451L109.047 38.5947Z" fill="white"/>
<path d="M146.097 38.5947H137.562L138.111 39.7299H146.694L146.097 38.5947Z" fill="white"/>
<path d="M110.536 35.7559H118.948L117.722 38.3099H109.186L110.536 35.7559Z" fill="white"/>
<path d="M144.471 35.7559H136.048L137.421 38.3099H145.903L144.471 35.7559Z" fill="white"/>
<path d="M111.73 33.4854H120.061L119.092 35.4718H110.68L111.73 33.4854Z" fill="white"/>
<path d="M143.201 33.4854H134.805L135.9 35.4718H144.302L143.201 33.4854Z" fill="white"/>
<path d="M112.915 31.2158H121.175L120.273 33.0604H111.94L112.915 31.2158Z" fill="white"/>
<path d="M124.085 31.2158H130.998L131.948 33.0604H123.225L124.085 31.2158Z" fill="white"/>
<path d="M125.155 28.9453H129.856L130.712 30.648H124.362L125.155 28.9453Z" fill="white"/>
<path d="M126.227 26.6748H128.714L129.484 28.2356H125.465L126.227 26.6748Z" fill="white"/>
<path d="M127.287 24.4043H127.573L128.144 25.5394H126.717L127.287 24.4043Z" fill="white"/>
<path d="M141.919 31.2158H133.566L134.566 33.0604H142.957L141.919 31.2158Z" fill="white"/>
<path d="M114.108 28.9453H122.278L121.445 30.648H113.214L114.108 28.9453Z" fill="white"/>
<path d="M140.648 28.9453H132.324L133.253 30.648H141.597L140.648 28.9453Z" fill="white"/>
<path d="M115.301 26.6748H123.39L122.625 28.2356H114.493L115.301 26.6748Z" fill="white"/>
<path d="M139.38 26.6748H131.082L131.937 28.2356H140.255L139.38 26.6748Z" fill="white"/>
<path d="M116.503 24.4043H124.498L123.818 25.8232H115.739L116.503 24.4043Z" fill="white"/>
<path d="M138.103 24.4043H129.856L130.619 25.8232H138.895L138.103 24.4043Z" fill="white"/>
<path d="M117.687 22.1348H125.609L125.049 23.2699H117.092L117.687 22.1348Z" fill="white"/>
<path d="M136.825 22.1348H128.604L129.229 23.2699H137.461L136.825 22.1348Z" fill="white"/>
<path d="M118.576 20.4316H126.431L126.025 21.283H118.127L118.576 20.4316Z" fill="white"/>
<path d="M135.873 20.4316H127.683L128.143 21.283H136.356L135.873 20.4316Z" fill="white"/>
<path d="M119.469 18.7295H134.909L135.4 19.5808H119.011L119.469 18.7295Z" fill="white"/>
<path d="M120.352 17.0264H133.969L134.445 17.8777H119.914L120.352 17.0264Z" fill="white"/>
<path d="M121.246 15.3242H132.995L133.485 16.1756H120.819L121.246 15.3242Z" fill="white"/>
<path d="M122.15 13.6211H132.055L132.533 14.4724H121.702L122.15 13.6211Z" fill="white"/>
<path d="M123.038 11.918H131.103L131.568 12.7693H122.598L123.038 11.918Z" fill="white"/>
<path d="M123.938 10.2158H130.141L130.627 10.7834H123.486L123.938 10.2158Z" fill="white"/>
<path d="M183.226 33.4854H212.336L211.496 35.4718H184.319L183.226 33.4854Z" fill="white"/>
<path d="M184.367 35.7559H211.195L209.826 38.3099H186.01L184.367 35.7559Z" fill="white"/>
<path d="M186.204 38.5947H209.482L207.785 39.7299H187.792L186.204 38.5947Z" fill="white"/>
<path d="M188.934 11.918H182.084V12.7693H188.934V11.918Z" fill="white"/>
<path d="M213.478 11.918H206.628V12.7693H213.478V11.918Z" fill="white"/>
<path d="M188.934 13.6211H182.084V14.4724H188.934V13.6211Z" fill="white"/>
<path d="M213.478 13.6211H206.628V14.4724H213.478V13.6211Z" fill="white"/>
<path d="M188.934 15.3242H182.084V16.1756H188.934V15.3242Z" fill="white"/>
<path d="M213.478 15.3242H206.628V16.1756H213.478V15.3242Z" fill="white"/>
<path d="M188.934 17.0264H182.084V17.8777H188.934V17.0264Z" fill="white"/>
<path d="M213.478 17.0264H206.628V17.8777H213.478V17.0264Z" fill="white"/>
<path d="M188.934 18.7295H182.084V19.5808H188.934V18.7295Z" fill="white"/>
<path d="M213.478 18.7295H206.628V19.5808H213.478V18.7295Z" fill="white"/>
<path d="M188.934 20.4316H182.084V21.283H188.934V20.4316Z" fill="white"/>
<path d="M213.478 20.4316H206.628V21.283H213.478V20.4316Z" fill="white"/>
<path d="M188.934 22.1348H182.084V23.2699H188.934V22.1348Z" fill="white"/>
<path d="M213.478 22.1348H206.628V23.2699H213.478V22.1348Z" fill="white"/>
<path d="M188.934 24.4043H182.084V25.8232H188.934V24.4043Z" fill="white"/>
<path d="M213.478 24.4043H206.628V25.8232H213.478V24.4043Z" fill="white"/>
<path d="M188.934 26.6748H182.084V28.2356H188.934V26.6748Z" fill="white"/>
<path d="M213.478 26.6748H206.628V28.2356H213.478V26.6748Z" fill="white"/>
<path d="M182.084 28.9453H188.934L189.504 30.5061H182.222L182.084 28.9453Z" fill="white"/>
<path d="M213.478 28.9453H206.628L206.057 30.5061H213.34L213.478 28.9453Z" fill="white"/>
<path d="M182.369 31.2158H190.075L192.929 32.0672H182.655L182.369 31.2158Z" fill="white"/>
<path d="M213.178 31.2158H205.981L203.204 31.7834H212.989L213.178 31.2158Z" fill="white"/>
<path d="M182.655 32.067L191.788 31.7832H212.994L212.907 32.067L212.735 32.6346H182.849L182.655 32.067Z" fill="white"/>
<path d="M188.934 10.2158H182.084V10.7834H188.934V10.2158Z" fill="white"/>
<path d="M213.478 10.2158H206.628V10.7834H213.478V10.2158Z" fill="white"/>
<path d="M155.828 38.5947H148.407V39.7299H155.828V38.5947Z" fill="white"/>
<path d="M155.828 35.7559H148.407V38.3099H155.828V35.7559Z" fill="white"/>
<path d="M148.407 33.4854H155.828V35.4718H148.407V33.4854Z" fill="white"/>
<path d="M155.828 31.2158H148.407V33.0604H155.828V31.2158Z" fill="white"/>
<path d="M155.828 28.9453H148.407V30.648H155.828V28.9453Z" fill="white"/>
<path d="M168.956 28.9453H159.252V30.648H168.956V28.9453Z" fill="white"/>
<path d="M155.828 26.6748H148.407V28.2356H155.828V26.6748Z" fill="white"/>
<path d="M168.956 26.6748H159.252V28.2356H168.956V26.6748Z" fill="white"/>
<path d="M155.828 24.4043H148.407V25.8232H155.828V24.4043Z" fill="white"/>
<path d="M168.956 24.4043H159.252V25.8232H168.956V24.4043Z" fill="white"/>
<path d="M155.828 22.1348H148.407V23.2699H155.828V22.1348Z" fill="white"/>
<path d="M168.956 22.1348H159.252V23.2699H168.956V22.1348Z" fill="white"/>
<path d="M168.956 20.4316H159.252V20.9992H168.956V20.4316Z" fill="white"/>
<path d="M148.604 20.4316H156.877L156.113 21.283H148.407L148.604 20.4316Z" fill="white"/>
<path d="M148.978 18.7295H158.682L157.54 19.5808H148.746L148.978 18.7295Z" fill="white"/>
<path d="M149.468 17.0264H179.801V17.8777H149.193L149.468 17.0264Z" fill="white"/>
<path d="M150.487 15.3242H179.801V16.1756H149.942L150.487 15.3242Z" fill="white"/>
<path d="M152.117 13.6211H179.801V14.4724H151.261L152.117 13.6211Z" fill="white"/>
<path d="M155.257 11.918H179.801V12.7693H153.544L155.257 11.918Z" fill="white"/>
<path d="M158.111 10.2158H179.801V10.7834H156.398L158.111 10.2158Z" fill="white"/>
<path d="M216.332 15.3242H246.584L247.006 16.4593H216.332V15.3242Z" fill="white"/>
<path d="M216.332 23.2699H246.731L247.155 22.1348H216.332V23.2699Z" fill="white"/>
<path d="M216.332 17.0264H247.155V17.8777H240.305L239.734 17.5939H216.332V17.0264Z" fill="white"/>
<path d="M216.332 20.7154H240.02L240.305 20.4316H247.155V21.283H216.332V20.7154Z" fill="white"/>
<path d="M247.155 18.7295H240.305V19.5808H247.155V18.7295Z" fill="white"/>
<path d="M223.752 33.4854H216.332V35.4718H223.752V33.4854Z" fill="white"/>
<path d="M223.752 31.2158H216.332V33.0604H223.752V31.2158Z" fill="white"/>
<path d="M227.533 33.4854H236.134L237.737 35.4718H229.175L227.533 33.4854Z" fill="white"/>
<path d="M225.655 31.2158H234.243L235.772 33.0604H227.177L225.655 31.2158Z" fill="white"/>
<path d="M229.397 35.7559H237.991L240.098 38.3099H231.507L229.397 35.7559Z" fill="white"/>
<path d="M223.752 35.7559H216.332V38.3099H223.752V35.7559Z" fill="white"/>
<path d="M223.752 38.5947H216.332V39.7299H223.752V38.5947Z" fill="white"/>
<path d="M231.743 38.5947H240.337L241.275 39.7299H232.676L231.743 38.5947Z" fill="white"/>
<path d="M216.332 28.9453H232.369L233.648 30.5061H216.332V28.9453Z" fill="white"/>
<path d="M240.138 10.2158H216.332V10.7834H241.732L240.138 10.2158Z" fill="white"/>
<path d="M243.445 11.918H216.332V12.7693H244.727L243.445 11.918Z" fill="white"/>
<path d="M245.596 13.6211H216.332V14.4724H246.299L245.596 13.6211Z" fill="white"/>
<path d="M241.732 27.8099H216.332V26.6748H244.586L241.732 27.8099Z" fill="white"/>
<path d="M245.874 25.8232H216.332V24.4043H246.584L245.874 25.8232Z" fill="white"/>
<path d="M94.1816 38.5947H86.7612V39.7299H94.1816V38.5947Z" fill="white"/>
<path d="M94.1816 35.7559H86.7612V38.3099H94.1816V35.7559Z" fill="white"/>
<path d="M86.7612 33.4854H94.1816V35.4718H86.7612V33.4854Z" fill="white"/>
<path d="M94.1816 31.2158H86.7612V33.0604H94.1816V31.2158Z" fill="white"/>
<path d="M94.1816 28.9453H86.7612V30.648H94.1816V28.9453Z" fill="white"/>
<path d="M94.1816 26.6748H86.7612V28.2356H94.1816V26.6748Z" fill="white"/>
<path d="M94.1816 24.4043H86.7612V25.8232H94.1816V24.4043Z" fill="white"/>
<path d="M106.168 15.3242H74.7744V16.4593H106.168V15.3242Z" fill="white"/>
<path d="M106.168 13.6211H74.7744V14.4724H106.168V13.6211Z" fill="white"/>
<path d="M106.168 11.918H74.7744V12.7693H106.168V11.918Z" fill="white"/>
<path d="M106.168 10.2158H74.7744V10.7834H106.168V10.2158Z" fill="white"/>
<path d="M106.168 17.0264H74.7744V18.1615H106.168V17.0264Z" fill="white"/>
<path d="M94.1816 22.1348H86.7612V23.2699H94.1816V22.1348Z" fill="white"/>
<path d="M94.1816 20.4316H86.7612V21.283H94.1816V20.4316Z" fill="white"/>
<path d="M257.429 38.5947H250.009V39.7299H257.429V38.5947Z" fill="white"/>
<path d="M257.429 35.7559H250.009V38.3099H257.429V35.7559Z" fill="white"/>
<path d="M250.009 33.4854H257.429V35.4718H250.009V33.4854Z" fill="white"/>
<path d="M257.429 31.2158H250.009V33.0604H257.429V31.2158Z" fill="white"/>
<path d="M257.429 28.9453H250.009V30.648H257.429V28.9453Z" fill="white"/>
<path d="M257.429 26.6748H250.009V28.2356H257.429V26.6748Z" fill="white"/>
<path d="M257.429 24.4043H250.009V25.8232H257.429V24.4043Z" fill="white"/>
<path d="M257.429 22.1348H250.009V23.2699H257.429V22.1348Z" fill="white"/>
<path d="M257.429 20.4316H250.009V21.283H257.429V20.4316Z" fill="white"/>
<path d="M257.429 18.7295H250.009V19.5808H257.429V18.7295Z" fill="white"/>
<path d="M257.429 17.0264H250.009V17.8777H257.429V17.0264Z" fill="white"/>
<path d="M257.429 15.3242H250.009V16.1756H257.429V15.3242Z" fill="white"/>
<path d="M257.429 13.6211H250.009V14.4724H257.429V13.6211Z" fill="white"/>
<path d="M257.429 11.918H250.009V12.7693H257.429V11.918Z" fill="white"/>
<path d="M257.429 10.2158H250.009V10.7834H257.429V10.2158Z" fill="white"/>
<path d="M10.2614 26.5666L7.71191 23.0656L34.7589 7.40918L48.9638 15.8598L48.8235 21.0675L34.2272 12.7147L10.2614 26.5666Z" fill="white"/>
<path d="M10.2743 27.2429C10.2743 30.064 7.97437 32.351 5.13717 32.351C2.29999 32.351 0 30.064 0 27.2429C0 24.4217 2.29999 22.1348 5.13717 22.1348C7.97437 22.1348 10.2743 24.4217 10.2743 27.2429ZM2.31336 27.2429C2.31336 28.7936 3.57762 30.0507 5.13717 30.0507C6.6967 30.0507 7.96095 28.7936 7.96095 27.2429C7.96095 25.6922 6.6967 24.4351 5.13717 24.4351C3.57762 24.4351 2.31336 25.6922 2.31336 27.2429Z" fill="white"/>
<path d="M51.3717 9.64844H55.9381V40.2971L41.9051 49.6765L37.6636 47.456L51.3717 37.4592V9.64844Z" fill="white"/>
<path d="M58.7922 5.10811C58.7922 7.92926 56.4922 10.2162 53.655 10.2162C50.8178 10.2162 48.5178 7.92926 48.5178 5.10811C48.5178 2.28698 50.8178 0 53.655 0C56.4922 0 58.7922 2.28698 58.7922 5.10811ZM50.8312 5.10811C50.8312 6.65882 52.0955 7.91592 53.655 7.91592C55.2145 7.91592 56.4788 6.65882 56.4788 5.10811C56.4788 3.55738 55.2145 2.30027 53.655 2.30027C52.0955 2.30027 50.8312 3.55738 50.8312 5.10811Z" fill="white"/>
<path d="M44.522 54.2022L42.8096 58.1751L15.4114 43.1346V26.6751L19.9777 24.1211L20.2631 40.8643L44.522 54.2022Z" fill="white"/>
<path d="M53.0839 57.8913C53.0839 60.7127 50.7839 62.9994 47.9467 62.9994C45.1095 62.9994 42.8096 60.7127 42.8096 57.8913C42.8096 55.0702 45.1095 52.7832 47.9467 52.7832C50.7839 52.7832 53.0839 55.0702 53.0839 57.8913ZM45.123 57.8913C45.123 59.4419 46.3872 60.6991 47.9467 60.6991C49.5063 60.6991 50.7705 59.4419 50.7705 57.8913C50.7705 56.3406 49.5063 55.0835 47.9467 55.0835C46.3872 55.0835 45.123 56.3406 45.123 57.8913Z" fill="white"/>
<path d="M124.653 53.6928C124.511 54.9033 124.061 55.8387 123.302 56.499C122.548 57.1541 121.544 57.4816 120.29 57.4816C118.93 57.4816 117.839 56.9969 117.017 56.0273C116.2 55.0579 115.792 53.7609 115.792 52.1364V51.036C115.792 49.9722 115.981 49.0368 116.361 48.2297C116.746 47.4227 117.288 46.8044 117.989 46.3746C118.69 45.9397 119.502 45.8066 120.424 45.8066C121.647 45.8066 122.627 46.0629 123.365 46.7441C124.103 47.4201 124.532 48.3581 124.653 49.5582H123.128C122.996 48.6463 122.709 47.9861 122.266 47.5773C121.828 47.1686 121.215 46.9642 120.424 46.9642C119.455 46.9642 118.693 47.3206 118.139 48.0332C117.591 48.7459 117.317 49.7599 117.317 51.0752V52.1836C117.317 53.4255 117.578 54.4133 118.1 55.147C118.622 55.8806 119.352 56.2474 120.29 56.2474C121.133 56.2474 121.779 56.0588 122.227 55.6815C122.68 55.299 122.98 54.6361 123.128 53.6928H124.653Z" fill="white"/>
<path d="M172.491 51.9713C172.491 53.0928 172.301 54.0728 171.922 54.9112C171.542 55.7444 171.004 56.3811 170.308 56.8215C169.613 57.2614 168.802 57.4816 167.874 57.4816C166.968 57.4816 166.164 57.2614 165.463 56.8215C164.762 56.3758 164.216 55.7444 163.826 54.9269C163.442 54.1042 163.244 53.1531 163.233 52.0736V51.2482C163.233 50.1478 163.426 49.1757 163.81 48.332C164.195 47.4882 164.738 46.8437 165.439 46.3983C166.145 45.9476 166.952 45.8701 167.858 45.8701C168.78 45.8701 169.592 45.945 170.293 46.3904C170.999 46.8306 171.542 47.4725 171.922 48.3163C172.301 49.1547 172.491 50.132 172.491 51.2482V51.9713ZM170.981 51.2325C170.981 49.8753 170.707 48.835 170.158 48.1119C169.61 47.3835 168.844 47.0193 167.858 47.0193C166.899 47.0193 166.143 47.3835 165.589 48.1119C165.041 48.835 164.759 49.8412 164.743 51.1303V51.9713C164.743 53.2867 165.02 54.3216 165.574 55.0763C166.132 55.8256 166.899 56.2003 167.874 56.2003C168.854 56.2003 169.613 55.8466 170.15 55.1392C170.688 54.4265 170.965 53.4072 170.981 52.0814V51.2325Z" fill="white"/>
<path d="M181.144 56.2806H186.599V57.5147H179.619V45.8701H181.144V56.2806Z" fill="white"/>
<path d="M202.743 51.9718C202.743 53.0932 202.554 54.0732 202.174 54.9116C201.794 55.7449 201.257 56.3816 200.561 56.8219C199.866 57.2618 199.054 57.482 198.126 57.482C197.22 57.482 196.416 57.2618 195.715 56.8219C195.014 56.3763 194.469 55.7449 194.079 54.9273C193.694 54.1046 193.497 53.1535 193.486 52.074V51.2486C193.486 50.1482 193.678 49.1761 194.063 48.3324C194.448 47.4887 194.99 46.8442 195.691 46.3987C196.397 45.9481 197.204 45.7754 198.11 45.7754C199.033 45.7754 199.845 45.9454 200.545 46.3908C201.252 46.831 201.794 47.473 202.174 48.3167C202.554 49.1551 202.743 50.1325 202.743 51.2486V51.9718ZM201.233 51.2329C201.233 49.8757 200.959 48.8355 200.411 48.1123C199.863 47.3839 199.096 47.0197 198.11 47.0197C197.151 47.0197 196.395 47.3839 195.842 48.1123C195.294 48.8355 195.012 49.8416 194.996 51.1307V51.9718C194.996 53.2871 195.272 54.3221 195.826 55.0767C196.384 55.8261 197.151 56.2007 198.126 56.2007C199.106 56.2007 199.866 55.847 200.403 55.1396C200.94 54.4269 201.217 53.4077 201.233 52.0818V51.2329Z" fill="white"/>
<path d="M218.37 55.823C217.979 56.3784 217.434 56.7948 216.733 57.0729C216.037 57.3453 215.226 57.4815 214.298 57.4815C213.36 57.4815 212.528 57.2641 211.8 56.8288C211.073 56.3889 210.509 55.7653 210.108 54.9583C209.713 54.1513 209.51 53.2159 209.5 52.1521V51.1538C209.5 49.4298 209.903 48.0935 210.71 47.145C211.521 46.1965 212.667 45.7432 214.132 45.7432C215.334 45.7432 216.293 46.0288 217.025 46.6419C217.758 47.2497 218.206 48.1144 218.37 49.2358H216.852C216.567 47.7214 215.661 46.9641 214.132 46.9641C213.115 46.9641 212.343 47.3205 211.816 48.0332C211.294 48.7406 211.031 49.7678 211.026 51.1145V52.0499C211.026 53.3338 211.321 54.3556 211.911 55.1155C212.501 55.8701 213.3 56.2474 214.306 56.2474C214.875 56.2474 215.373 56.1845 215.8 56.0587C216.227 55.933 216.58 55.7207 216.859 55.422V52.8517H214.195V51.6255H218.37V55.823Z" fill="white"/>
<path d="M227.482 57.4808H225.964V45.8799H227.482V57.4808Z" fill="white"/>
<path d="M253.595 52.2233C252.293 51.8513 251.344 51.3954 250.749 50.8556C250.158 50.3106 249.863 49.6399 249.863 48.8433C249.863 47.942 250.224 47.1979 250.946 46.6109C251.674 46.0188 252.617 45.7754 253.776 45.7754C254.567 45.7754 255.271 45.8747 255.887 46.1786C256.509 46.4826 256.989 46.9018 257.326 47.4363C257.668 47.9708 257.84 48.5551 257.84 49.1892H256.314C256.314 48.4975 256.092 47.9551 255.65 47.5621C255.207 47.1638 254.583 46.9646 253.776 46.9646C253.028 46.9646 252.443 47.1298 252.022 47.4599C251.605 47.7848 251.397 48.2381 251.397 48.8197C251.397 49.2861 251.595 49.6818 251.99 50.0067C252.39 50.3263 253.068 50.6198 254.022 50.887C254.981 51.1543 255.729 51.4504 256.267 51.7753C256.809 52.0949 257.21 52.4696 257.468 52.8994C257.732 53.3291 257.864 53.8348 257.864 54.4164C257.864 55.3439 257.5 56.0881 256.772 56.6488C256.045 57.2045 255.073 57.482 253.856 57.482C253.065 57.482 252.327 57.3327 251.642 57.0342C250.957 56.73 250.427 56.3161 250.053 55.792C249.684 55.268 249.5 54.6732 249.5 54.0076H251.026C251.026 54.6994 251.281 55.247 251.792 55.6505C252.309 56.0488 252.996 56.2479 253.856 56.2479C254.656 56.2479 255.271 56.0855 255.697 55.7606C256.124 55.4356 256.338 54.9928 256.338 54.4321C256.338 53.8714 256.14 53.4391 255.745 53.1352C255.35 52.826 254.633 52.522 253.595 52.2233Z" fill="white"/>
<path d="M140.444 57.4858H138.919V52.0346H133.117V57.4858H131.599V45.8799H133.117V50.8006H138.919V45.8799H140.444V57.4858Z" fill="white"/>
<path d="M148.407 47.3913V45.874H149.155L154.896 54.8786V57.4798L148.407 47.3913Z" fill="white"/>
<path d="M148.407 48.8105L149.834 51.0808V57.4773H148.407V48.8105Z" fill="white"/>
<path d="M156.307 45.8701H154.884L154.884 57.4815H156.307V45.8701Z" fill="white"/>
<path d="M91.042 48.2432H89.615V57.4736H91.042V48.2432Z" fill="white"/>
<path d="M93.6106 47.2926V45.8701H86.7441V47.2976L93.6106 47.2926Z" fill="white"/>
<path d="M237.455 48.2178H235.931V57.4806H237.455V48.2178Z" fill="white"/>
<path d="M242.786 47.2659V45.8701L235.937 45.8701V47.2659H242.786Z" fill="white"/>
<path d="M241.799 52.2934V50.8184H235.995V52.2934H241.799Z" fill="white"/>
<path d="M242.786 56.0322V57.4803H235.937V56.0322H242.786Z" fill="white"/>
<path d="M102.707 48.2178H101.28V57.3246H102.707V48.2178Z" fill="white"/>
<path d="M108.129 47.265L108.133 45.8701H101.279V47.265H108.129Z" fill="white"/>
<path d="M107.091 52.3579V50.8828H101.287V52.3579H107.091Z" fill="white"/>
<path d="M108.129 56.0068V57.4818H101.28V56.0068H108.129Z" fill="white"/>
</svg>
