<svg width="20" height="14" viewBox="0 0 20 14" fill="none" xmlns="http://www.w3.org/2000/svg">
<path d="M6.375 9.5C8.61866 9.5 10.4375 7.68116 10.4375 5.4375C10.4375 3.19384 8.61866 1.375 6.375 1.375C4.13134 1.375 2.3125 3.19384 2.3125 5.4375C2.3125 7.68116 4.13134 9.5 6.375 9.5Z" stroke="#DFE3E8" stroke-width="1.5" stroke-linecap="round" stroke-linejoin="round"/>
<path d="M11.6406 1.52344C11.9997 1.42604 12.3701 1.37613 12.7422 1.375C13.8196 1.375 14.8529 1.80301 15.6148 2.56488C16.3767 3.32675 16.8047 4.36006 16.8047 5.4375C16.8047 6.51494 16.3767 7.54825 15.6148 8.31012C14.8529 9.07199 13.8196 9.5 12.7422 9.5" stroke="#DFE3E8" stroke-width="1.5" stroke-linecap="round" stroke-linejoin="round"/>
<path d="M0.75 12.4219C1.38433 11.5192 2.22659 10.7825 3.20563 10.2738C4.18467 9.76524 5.27173 9.49973 6.375 9.49973C7.47827 9.49973 8.56533 9.76524 9.54437 10.2738C10.5234 10.7825 11.3657 11.5192 12 12.4219" stroke="#DFE3E8" stroke-width="1.5" stroke-linecap="round" stroke-linejoin="round"/>
<path d="M12.7422 9.5C13.8455 9.49932 14.9328 9.76451 15.912 10.2731C16.8911 10.7817 17.7333 11.5188 18.3672 12.4219" stroke="#DFE3E8" stroke-width="1.5" stroke-linecap="round" stroke-linejoin="round"/>
</svg>
